<svg xmlns="http://www.w3.org/2000/svg" xmlns:xlink="http://www.w3.org/1999/xlink" contentStyleType="text/css" data-diagram-type="ACTIVITY" height="400px" preserveAspectRatio="none" style="width:678px;height:400px;background:#FFFFFF;" version="1.1" viewBox="0 0 678 400" width="678px" zoomAndPan="magnify"><defs/><g><g class="title" data-source-line="17"><text fill="#000000" font-family="'DejaVu Sans'" font-size="15" font-weight="700" lengthAdjust="spacing" textLength="276.5259" x="200.0935" y="33.9233">Choosing an in-memory backend</text></g><ellipse cx="328.5483" cy="63.4609" fill="#222222" rx="10" ry="10" style="stroke:#222222;stroke-width:1;"/><rect fill="#F1F1F1" height="36.2969" rx="12.5" ry="12.5" style="stroke:#37474F;stroke-width:0.5;" width="155.7275" x="250.6846" y="93.4609"/><text fill="#000000" font-family="'DejaVu Sans'" font-size="14" lengthAdjust="spacing" textLength="135.7275" x="260.6846" y="116.4561">What do you need?</text><polygon fill="#FFE0B2" points="246.5444,149.7578,410.5522,149.7578,422.5522,166.0547,410.5522,182.3516,246.5444,182.3516,234.5444,166.0547,246.5444,149.7578" style="stroke:#37474F;stroke-width:0.5;stroke-linejoin:miter;stroke-miterlimit:10;"/><text fill="#000000" font-family="'DejaVu Sans'" font-size="14" lengthAdjust="spacing" textLength="55.0908" x="246.5444" y="162.7529">Need to</text><text fill="#000000" font-family="'DejaVu Sans'" font-size="14" font-weight="700" lengthAdjust="spacing" textLength="59.2266" x="306.0854" y="162.7529">remove</text><text fill="#000000" font-family="'DejaVu Sans'" font-size="14" lengthAdjust="spacing" textLength="40.79" x="369.7622" y="162.7529">terms</text><text fill="#000000" font-family="'DejaVu Sans'" font-size="14" lengthAdjust="spacing" textLength="81.0811" x="246.5444" y="179.0498">at runtime?</text><text fill="#000000" font-family="'DejaVu Sans'" font-size="14" lengthAdjust="spacing" textLength="24.1924" x="210.3521" y="162.7529">yes</text><text fill="#000000" font-family="'DejaVu Sans'" font-size="14" lengthAdjust="spacing" textLength="17.4385" x="422.5522" y="162.7529">no</text><polygon fill="#FFE0B2" points="109.605,192.3516,206.1353,192.3516,218.1353,204.3516,206.1353,216.3516,109.605,216.3516,97.605,204.3516,109.605,192.3516" style="stroke:#37474F;stroke-width:0.5;stroke-linejoin:miter;stroke-miterlimit:10;"/><text fill="#000000" font-family="'DejaVu Sans'" font-size="14" lengthAdjust="spacing" textLength="96.5303" x="109.605" y="209.1982">Unicode text?</text><text fill="#000000" font-family="'DejaVu Sans'" font-size="14" lengthAdjust="spacing" textLength="24.1924" x="73.4126" y="201.0498">yes</text><text fill="#000000" font-family="'DejaVu Sans'" font-size="14" lengthAdjust="spacing" textLength="17.4385" x="218.1353" y="201.0498">no</text><rect fill="#C8E6C9" height="52.5938" rx="12.5" ry="12.5" style="stroke:#37474F;stroke-width:0.5;" width="131.8701" x="16" y="226.3516"/><text fill="#000000" font-family="'DejaVu Sans'" font-size="14" font-weight="700" lengthAdjust="spacing" textLength="111.8701" x="26" y="249.3467">DynamicDawg</text><text fill="#000000" font-family="'DejaVu Sans'" font-size="14" font-weight="700" lengthAdjust="spacing" textLength="36.5928" x="26" y="265.6436">Char</text><rect fill="#C8E6C9" height="36.2969" rx="12.5" ry="12.5" style="stroke:#37474F;stroke-width:0.5;" width="131.8701" x="167.8701" y="226.3516"/><text fill="#000000" font-family="'DejaVu Sans'" font-size="14" font-weight="700" lengthAdjust="spacing" textLength="111.8701" x="177.8701" y="249.3467">DynamicDawg</text><polygon fill="#FFE0B2" points="157.8701,284.9453,169.8701,296.9453,157.8701,308.9453,145.8701,296.9453,157.8701,284.9453" style="stroke:#37474F;stroke-width:0.5;stroke-linejoin:miter;stroke-miterlimit:10;"/><polygon fill="#FFE0B2" points="450.9614,192.3516,547.4917,192.3516,559.4917,204.3516,547.4917,216.3516,450.9614,216.3516,438.9614,204.3516,450.9614,192.3516" style="stroke:#37474F;stroke-width:0.5;stroke-linejoin:miter;stroke-miterlimit:10;"/><text fill="#000000" font-family="'DejaVu Sans'" font-size="14" lengthAdjust="spacing" textLength="96.5303" x="450.9614" y="209.1982">Unicode text?</text><text fill="#000000" font-family="'DejaVu Sans'" font-size="14" lengthAdjust="spacing" textLength="24.1924" x="414.769" y="201.0498">yes</text><text fill="#000000" font-family="'DejaVu Sans'" font-size="14" lengthAdjust="spacing" textLength="17.4385" x="559.4917" y="201.0498">no</text><rect fill="#C8E6C9" height="52.5938" rx="12.5" ry="12.5" style="stroke:#37474F;stroke-width:0.5;" width="149.4863" x="339.7402" y="226.3516"/><text fill="#000000" font-family="'DejaVu Sans'" font-size="14" font-weight="700" lengthAdjust="spacing" textLength="129.4863" x="349.7402" y="249.3467">DoubleArrayTrie</text><text fill="#000000" font-family="'DejaVu Sans'" font-size="14" font-weight="700" lengthAdjust="spacing" textLength="36.5928" x="349.7402" y="265.6436">Char</text><rect fill="#B2DFDB" height="52.5938" rx="12.5" ry="12.5" style="stroke:#37474F;stroke-width:0.5;" width="149.4863" x="509.2266" y="226.3516"/><text fill="#000000" font-family="'DejaVu Sans'" font-size="14" font-weight="700" lengthAdjust="spacing" textLength="129.4863" x="519.2266" y="249.3467">DoubleArrayTrie</text><text fill="#000000" font-family="'DejaVu Sans'" font-size="14" lengthAdjust="spacing" textLength="60.1836" x="519.2266" y="265.6436">(default)</text><polygon fill="#FFE0B2" points="499.2266,284.9453,511.2266,296.9453,499.2266,308.9453,487.2266,296.9453,499.2266,284.9453" style="stroke:#37474F;stroke-width:0.5;stroke-linejoin:miter;stroke-miterlimit:10;"/><polygon fill="#FFE0B2" points="328.5483,314.9453,340.5483,326.9453,328.5483,338.9453,316.5483,326.9453,328.5483,314.9453" style="stroke:#37474F;stroke-width:0.5;stroke-linejoin:miter;stroke-miterlimit:10;"/><ellipse cx="328.5483" cy="369.9453" fill="none" rx="11" ry="11" style="stroke:#222222;stroke-width:1;"/><ellipse cx="328.5483" cy="369.9453" fill="#222222" rx="6" ry="6" style="stroke:#222222;stroke-width:1;"/><line style="stroke:#37474F;stroke-width:1;" x1="328.5483" x2="328.5483" y1="73.4609" y2="93.4609"/><polygon fill="#37474F" points="324.5483,83.4609,328.5483,93.4609,332.5483,83.4609,328.5483,87.4609" style="stroke:#37474F;stroke-width:1;stroke-linejoin:miter;stroke-miterlimit:10;"/><line style="stroke:#37474F;stroke-width:1;" x1="97.605" x2="81.9351" y1="204.3516" y2="204.3516"/><line style="stroke:#37474F;stroke-width:1;" x1="81.9351" x2="81.9351" y1="204.3516" y2="226.3516"/><polygon fill="#37474F" points="77.9351,216.3516,81.9351,226.3516,85.9351,216.3516,81.9351,220.3516" style="stroke:#37474F;stroke-width:1;stroke-linejoin:miter;stroke-miterlimit:10;"/><line style="stroke:#37474F;stroke-width:1;" x1="218.1353" x2="233.8052" y1="204.3516" y2="204.3516"/><line style="stroke:#37474F;stroke-width:1;" x1="233.8052" x2="233.8052" y1="204.3516" y2="226.3516"/><polygon fill="#37474F" points="229.8052,216.3516,233.8052,226.3516,237.8052,216.3516,233.8052,220.3516" style="stroke:#37474F;stroke-width:1;stroke-linejoin:miter;stroke-miterlimit:10;"/><line style="stroke:#37474F;stroke-width:1;" x1="81.9351" x2="81.9351" y1="278.9453" y2="296.9453"/><line style="stroke:#37474F;stroke-width:1;" x1="81.9351" x2="145.8701" y1="296.9453" y2="296.9453"/><polygon fill="#37474F" points="135.8701,292.9453,145.8701,296.9453,135.8701,300.9453,139.8701,296.9453" style="stroke:#37474F;stroke-width:1;stroke-linejoin:miter;stroke-miterlimit:10;"/><line style="stroke:#37474F;stroke-width:1;" x1="233.8052" x2="233.8052" y1="262.6484" y2="296.9453"/><line style="stroke:#37474F;stroke-width:1;" x1="233.8052" x2="169.8701" y1="296.9453" y2="296.9453"/><polygon fill="#37474F" points="179.8701,292.9453,169.8701,296.9453,179.8701,300.9453,175.8701,296.9453" style="stroke:#37474F;stroke-width:1;stroke-linejoin:miter;stroke-miterlimit:10;"/><line style="stroke:#37474F;stroke-width:1;" x1="438.9614" x2="414.4834" y1="204.3516" y2="204.3516"/><line style="stroke:#37474F;stroke-width:1;" x1="414.4834" x2="414.4834" y1="204.3516" y2="226.3516"/><polygon fill="#37474F" points="410.4834,216.3516,414.4834,226.3516,418.4834,216.3516,414.4834,220.3516" style="stroke:#37474F;stroke-width:1;stroke-linejoin:miter;stroke-miterlimit:10;"/><line style="stroke:#37474F;stroke-width:1;" x1="559.4917" x2="583.9697" y1="204.3516" y2="204.3516"/><line style="stroke:#37474F;stroke-width:1;" x1="583.9697" x2="583.9697" y1="204.3516" y2="226.3516"/><polygon fill="#37474F" points="579.9697,216.3516,583.9697,226.3516,587.9697,216.3516,583.9697,220.3516" style="stroke:#37474F;stroke-width:1;stroke-linejoin:miter;stroke-miterlimit:10;"/><line style="stroke:#37474F;stroke-width:1;" x1="414.4834" x2="414.4834" y1="278.9453" y2="296.9453"/><line style="stroke:#37474F;stroke-width:1;" x1="414.4834" x2="487.2266" y1="296.9453" y2="296.9453"/><polygon fill="#37474F" points="477.2266,292.9453,487.2266,296.9453,477.2266,300.9453,481.2266,296.9453" style="stroke:#37474F;stroke-width:1;stroke-linejoin:miter;stroke-miterlimit:10;"/><line style="stroke:#37474F;stroke-width:1;" x1="583.9697" x2="583.9697" y1="278.9453" y2="296.9453"/><line style="stroke:#37474F;stroke-width:1;" x1="583.9697" x2="511.2266" y1="296.9453" y2="296.9453"/><polygon fill="#37474F" points="521.2266,292.9453,511.2266,296.9453,521.2266,300.9453,517.2266,296.9453" style="stroke:#37474F;stroke-width:1;stroke-linejoin:miter;stroke-miterlimit:10;"/><line style="stroke:#37474F;stroke-width:1;" x1="234.5444" x2="157.8701" y1="166.0547" y2="166.0547"/><line style="stroke:#37474F;stroke-width:1;" x1="157.8701" x2="157.8701" y1="166.0547" y2="192.3516"/><polygon fill="#37474F" points="153.8701,182.3516,157.8701,192.3516,161.8701,182.3516,157.8701,186.3516" style="stroke:#37474F;stroke-width:1;stroke-linejoin:miter;stroke-miterlimit:10;"/><line style="stroke:#37474F;stroke-width:1;" x1="422.5522" x2="499.2266" y1="166.0547" y2="166.0547"/><line style="stroke:#37474F;stroke-width:1;" x1="499.2266" x2="499.2266" y1="166.0547" y2="192.3516"/><polygon fill="#37474F" points="495.2266,182.3516,499.2266,192.3516,503.2266,182.3516,499.2266,186.3516" style="stroke:#37474F;stroke-width:1;stroke-linejoin:miter;stroke-miterlimit:10;"/><line style="stroke:#37474F;stroke-width:1;" x1="157.8701" x2="157.8701" y1="308.9453" y2="326.9453"/><line style="stroke:#37474F;stroke-width:1;" x1="157.8701" x2="316.5483" y1="326.9453" y2="326.9453"/><polygon fill="#37474F" points="306.5483,322.9453,316.5483,326.9453,306.5483,330.9453,310.5483,326.9453" style="stroke:#37474F;stroke-width:1;stroke-linejoin:miter;stroke-miterlimit:10;"/><line style="stroke:#37474F;stroke-width:1;" x1="499.2266" x2="499.2266" y1="308.9453" y2="326.9453"/><line style="stroke:#37474F;stroke-width:1;" x1="499.2266" x2="340.5483" y1="326.9453" y2="326.9453"/><polygon fill="#37474F" points="350.5483,322.9453,340.5483,326.9453,350.5483,330.9453,346.5483,326.9453" style="stroke:#37474F;stroke-width:1;stroke-linejoin:miter;stroke-miterlimit:10;"/><line style="stroke:#37474F;stroke-width:1;" x1="328.5483" x2="328.5483" y1="129.7578" y2="149.7578"/><polygon fill="#37474F" points="324.5483,139.7578,328.5483,149.7578,332.5483,139.7578,328.5483,143.7578" style="stroke:#37474F;stroke-width:1;stroke-linejoin:miter;stroke-miterlimit:10;"/><line style="stroke:#37474F;stroke-width:1;" x1="328.5483" x2="328.5483" y1="338.9453" y2="358.9453"/><polygon fill="#37474F" points="324.5483,348.9453,328.5483,358.9453,332.5483,348.9453,328.5483,352.9453" style="stroke:#37474F;stroke-width:1;stroke-linejoin:miter;stroke-miterlimit:10;"/></g></svg>