<svg xmlns="http://www.w3.org/2000/svg" xmlns:xlink="http://www.w3.org/1999/xlink" contentStyleType="text/css" data-diagram-type="STATE" height="703px" preserveAspectRatio="none" style="width:675px;height:703px;background:#FFFFFF;" version="1.1" viewBox="0 0 675 703" width="675px" zoomAndPan="magnify"><?plantuml $version$?><defs/><g><g class="title" data-source-line="10"><text fill="#000000" font-family="'DejaVu Sans'" font-size="14" font-weight="700" lengthAdjust="spacing" textLength="122.4521" x="133.12" y="22.9951">A DAWG shares</text><text fill="#000000" font-family="'DejaVu Sans'" font-size="14" font-weight="700" lengthAdjust="spacing" textLength="62.1387" x="260.4462" y="22.9951">suffixes</text><text fill="#000000" font-family="'DejaVu Sans'" font-size="14" font-weight="700" lengthAdjust="spacing" textLength="207.7031" x="327.4589" y="22.9951">too &#8212; terms { cats, bats }</text></g><g class="entity" data-qualified-name="Trie" data-source-line="12" id="ent0001"><path d="M19.5,44.2969 L264.1758,44.2969 A12.5,12.5 0 0 1 276.6758,56.7969 L276.6758,70.5938 L7,70.5938 L7,56.7969 A12.5,12.5 0 0 1 19.5,44.2969" fill="#FFEBEE"/><path d="M7,70.5938 L276.6758,70.5938 L276.6758,545.0938 A12.5,12.5 0 0 1 264.1758,557.5938 L19.5,557.5938 A12.5,12.5 0 0 1 7,545.0938 L7,70.5938" fill="#FFEBEE"/><rect fill="none" height="513.2969" rx="12.5" ry="12.5" style="stroke:#181818;stroke-width:0.5;" width="269.6758" x="7" y="44.2969"/><line style="stroke:#181818;stroke-width:0.5;" x1="7" x2="276.6758" y1="70.5938" y2="70.5938"/><text fill="#000000" font-family="'DejaVu Sans'" font-size="14" lengthAdjust="spacing" textLength="249.6758" x="17" y="62.292">Trie &#8212; prefix sharing only &#183; 8 nodes</text><g class="entity" data-qualified-name="Trie.r1" data-source-line="13" id="ent0002"><rect fill="#F1F1F1" height="50" rx="12.5" ry="12.5" style="stroke:#181818;stroke-width:0.5;" width="50" x="53" y="82.5938"/><line style="stroke:#181818;stroke-width:0.5;" x1="53" x2="103" y1="108.8906" y2="108.8906"/><text fill="#000000" font-family="'DejaVu Sans'" font-size="14" lengthAdjust="spacing" textLength="4.4502" x="75.7749" y="100.5889">&#183;</text></g><g class="entity" data-qualified-name="Trie.c1" data-source-line="14" id="ent0003"><rect fill="#F1F1F1" height="50" rx="12.5" ry="12.5" style="stroke:#181818;stroke-width:0.5;" width="50" x="19" y="185.5938"/><line style="stroke:#181818;stroke-width:0.5;" x1="19" x2="69" y1="211.8906" y2="211.8906"/><text fill="#000000" font-family="'DejaVu Sans'" font-size="14" lengthAdjust="spacing" textLength="7.6973" x="40.1514" y="203.5889">c</text></g><g class="entity" data-qualified-name="Trie.a1" data-source-line="15" id="ent0004"><rect fill="#F1F1F1" height="50" rx="12.5" ry="12.5" style="stroke:#181818;stroke-width:0.5;" width="50" x="19" y="288.5938"/><line style="stroke:#181818;stroke-width:0.5;" x1="19" x2="69" y1="314.8906" y2="314.8906"/><text fill="#000000" font-family="'DejaVu Sans'" font-size="14" lengthAdjust="spacing" textLength="8.5791" x="39.7104" y="306.5889">a</text></g><g class="entity" data-qualified-name="Trie.t1" data-source-line="16" id="ent0005"><rect fill="#F1F1F1" height="50" rx="12.5" ry="12.5" style="stroke:#181818;stroke-width:0.5;" width="50" x="19" y="391.5938"/><line style="stroke:#181818;stroke-width:0.5;" x1="19" x2="69" y1="417.8906" y2="417.8906"/><text fill="#000000" font-family="'DejaVu Sans'" font-size="14" lengthAdjust="spacing" textLength="5.4893" x="41.2554" y="409.5889">t</text></g><g class="entity" data-qualified-name="Trie.s1" data-source-line="17" id="ent0006"><rect fill="#F1F1F1" height="50" rx="12.5" ry="12.5" style="stroke:#181818;stroke-width:0.5;" width="50" x="19" y="494.5938"/><line style="stroke:#181818;stroke-width:0.5;" x1="19" x2="69" y1="520.8906" y2="520.8906"/><text fill="#000000" font-family="'DejaVu Sans'" font-size="14" lengthAdjust="spacing" textLength="23.4746" x="32.2627" y="512.5889">s &#10003;</text></g><g class="entity" data-qualified-name="Trie.b1" data-source-line="18" id="ent0007"><rect fill="#F1F1F1" height="50" rx="12.5" ry="12.5" style="stroke:#181818;stroke-width:0.5;" width="50" x="87" y="185.5938"/><line style="stroke:#181818;stroke-width:0.5;" x1="87" x2="137" y1="211.8906" y2="211.8906"/><text fill="#000000" font-family="'DejaVu Sans'" font-size="14" lengthAdjust="spacing" textLength="8.8867" x="107.5566" y="203.5889">b</text></g><g class="entity" data-qualified-name="Trie.a1b" data-source-line="19" id="ent0008"><rect fill="#F1F1F1" height="50" rx="12.5" ry="12.5" style="stroke:#181818;stroke-width:0.5;" width="50" x="87" y="288.5938"/><line style="stroke:#181818;stroke-width:0.5;" x1="87" x2="137" y1="314.8906" y2="314.8906"/><text fill="#000000" font-family="'DejaVu Sans'" font-size="14" lengthAdjust="spacing" textLength="8.5791" x="105.4854" y="306.5889">a</text></g><g class="entity" data-qualified-name="Trie.t1b" data-source-line="20" id="ent0009"><rect fill="#F1F1F1" height="50" rx="12.5" ry="12.5" style="stroke:#181818;stroke-width:0.5;" width="50" x="87" y="391.5938"/><line style="stroke:#181818;stroke-width:0.5;" x1="87" x2="137" y1="417.8906" y2="417.8906"/><text fill="#000000" font-family="'DejaVu Sans'" font-size="14" lengthAdjust="spacing" textLength="5.4893" x="107.0303" y="409.5889">t</text></g><g class="entity" data-qualified-name="Trie.s1b" data-source-line="21" id="ent0010"><rect fill="#F1F1F1" height="50" rx="12.5" ry="12.5" style="stroke:#181818;stroke-width:0.5;" width="50" x="87" y="494.5938"/><line style="stroke:#181818;stroke-width:0.5;" x1="87" x2="137" y1="520.8906" y2="520.8906"/><text fill="#000000" font-family="'DejaVu Sans'" font-size="14" lengthAdjust="spacing" textLength="23.4746" x="98.0376" y="512.5889">s &#10003;</text></g><!--link r1 to c1--><g class="link" data-entity-1="ent0002" data-entity-2="ent0003" data-link-type="dependency" data-source-line="22" id="lnk18"><path d="M69.77,133.0438 C64.42,148.9237 59.0873,164.7957 53.7473,180.6357" fill="none" id="r1-to-c1" style="stroke:#37474F;stroke-width:1;"/><polygon fill="#37474F" points="52.15,185.3737,58.8155,178.1232,53.7473,180.6357,51.2347,175.5675,52.15,185.3737" style="stroke:#37474F;stroke-width:1;stroke-linejoin:miter;stroke-miterlimit:10;"/><text fill="#000000" font-family="'DejaVu Sans'" font-size="13" lengthAdjust="spacing" textLength="7.1475" x="64.04" y="163.6606">c</text></g><!--link c1 to a1--><g class="link" data-entity-1="ent0003" data-entity-2="ent0004" data-link-type="dependency" data-source-line="23" id="lnk19"><path d="M44,236.0438 C44,251.9237 44,267.5338 44,283.3738" fill="none" id="c1-to-a1" style="stroke:#37474F;stroke-width:1;"/><polygon fill="#37474F" points="44,288.3738,48,279.3738,44,283.3738,40,279.3738,44,288.3738" style="stroke:#37474F;stroke-width:1;stroke-linejoin:miter;stroke-miterlimit:10;"/><text fill="#000000" font-family="'DejaVu Sans'" font-size="13" lengthAdjust="spacing" textLength="7.9663" x="45" y="266.6606">a</text></g><!--link a1 to t1--><g class="link" data-entity-1="ent0004" data-entity-2="ent0005" data-link-type="dependency" data-source-line="24" id="lnk20"><path d="M44,339.0438 C44,354.9238 44,370.5338 44,386.3738" fill="none" id="a1-to-t1" style="stroke:#37474F;stroke-width:1;"/><polygon fill="#37474F" points="44,391.3738,48,382.3738,44,386.3738,40,382.3738,44,391.3738" style="stroke:#37474F;stroke-width:1;stroke-linejoin:miter;stroke-miterlimit:10;"/><text fill="#000000" font-family="'DejaVu Sans'" font-size="13" lengthAdjust="spacing" textLength="5.0972" x="45" y="369.6606">t</text></g><!--link t1 to s1--><g class="link" data-entity-1="ent0005" data-entity-2="ent0006" data-link-type="dependency" data-source-line="25" id="lnk21"><path d="M44,442.0438 C44,457.9238 44,473.5338 44,489.3738" fill="none" id="t1-to-s1" style="stroke:#37474F;stroke-width:1;"/><polygon fill="#37474F" points="44,494.3738,48,485.3738,44,489.3738,40,485.3738,44,494.3738" style="stroke:#37474F;stroke-width:1;stroke-linejoin:miter;stroke-miterlimit:10;"/><text fill="#000000" font-family="'DejaVu Sans'" font-size="13" lengthAdjust="spacing" textLength="6.7729" x="45" y="472.6606">s</text></g><!--link r1 to b1--><g class="link" data-entity-1="ent0002" data-entity-2="ent0007" data-link-type="dependency" data-source-line="26" id="lnk22"><path d="M86.23,133.0438 C91.58,148.9237 96.9127,164.7957 102.2527,180.6357" fill="none" id="r1-to-b1" style="stroke:#37474F;stroke-width:1;"/><polygon fill="#37474F" points="103.85,185.3737,104.7653,175.5675,102.2527,180.6357,97.1845,178.1232,103.85,185.3737" style="stroke:#37474F;stroke-width:1;stroke-linejoin:miter;stroke-miterlimit:10;"/><text fill="#000000" font-family="'DejaVu Sans'" font-size="13" lengthAdjust="spacing" textLength="8.252" x="98.04" y="163.6606">b</text></g><!--link b1 to a1b--><g class="link" data-entity-1="ent0007" data-entity-2="ent0008" data-link-type="dependency" data-source-line="27" id="lnk23"><path d="M112,236.0438 C112,251.9237 112,267.5338 112,283.3738" fill="none" id="b1-to-a1b" style="stroke:#37474F;stroke-width:1;"/><polygon fill="#37474F" points="112,288.3738,116,279.3738,112,283.3738,108,279.3738,112,288.3738" style="stroke:#37474F;stroke-width:1;stroke-linejoin:miter;stroke-miterlimit:10;"/><text fill="#000000" font-family="'DejaVu Sans'" font-size="13" lengthAdjust="spacing" textLength="7.9663" x="113" y="266.6606">a</text></g><!--link a1b to t1b--><g class="link" data-entity-1="ent0008" data-entity-2="ent0009" data-link-type="dependency" data-source-line="28" id="lnk24"><path d="M112,339.0438 C112,354.9238 112,370.5338 112,386.3738" fill="none" id="a1b-to-t1b" style="stroke:#37474F;stroke-width:1;"/><polygon fill="#37474F" points="112,391.3738,116,382.3738,112,386.3738,108,382.3738,112,391.3738" style="stroke:#37474F;stroke-width:1;stroke-linejoin:miter;stroke-miterlimit:10;"/><text fill="#000000" font-family="'DejaVu Sans'" font-size="13" lengthAdjust="spacing" textLength="5.0972" x="113" y="369.6606">t</text></g><!--link t1b to s1b--><g class="link" data-entity-1="ent0009" data-entity-2="ent0010" data-link-type="dependency" data-source-line="29" id="lnk25"><path d="M112,442.0438 C112,457.9238 112,473.5338 112,489.3738" fill="none" id="t1b-to-s1b" style="stroke:#37474F;stroke-width:1;"/><polygon fill="#37474F" points="112,494.3738,116,485.3738,112,489.3738,108,485.3738,112,494.3738" style="stroke:#37474F;stroke-width:1;stroke-linejoin:miter;stroke-miterlimit:10;"/><text fill="#000000" font-family="'DejaVu Sans'" font-size="13" lengthAdjust="spacing" textLength="6.7729" x="113" y="472.6606">s</text></g></g><g class="entity" data-qualified-name="Dawg" data-source-line="32" id="ent0011"><path d="M324,44.2969 L611.6807,44.2969 A12.5,12.5 0 0 1 624.1807,56.7969 L624.1807,70.5938 L311.5,70.5938 L311.5,56.7969 A12.5,12.5 0 0 1 324,44.2969" fill="#E8F5E9"/><path d="M311.5,70.5938 L624.1807,70.5938 L624.1807,545.0938 A12.5,12.5 0 0 1 611.6807,557.5938 L324,557.5938 A12.5,12.5 0 0 1 311.5,545.0938 L311.5,70.5938" fill="#E8F5E9"/><rect fill="none" height="513.2969" rx="12.5" ry="12.5" style="stroke:#181818;stroke-width:0.5;" width="312.6807" x="311.5" y="44.2969"/><line style="stroke:#181818;stroke-width:0.5;" x1="311.5" x2="624.1807" y1="70.5938" y2="70.5938"/><text fill="#000000" font-family="'DejaVu Sans'" font-size="14" lengthAdjust="spacing" textLength="292.6807" x="321.5" y="62.292">DAWG &#8212; prefix + suffix sharing &#183; 5 nodes</text><g class="entity" data-qualified-name="Dawg.r2" data-source-line="33" id="ent0012"><rect fill="#F1F1F1" height="50" rx="12.5" ry="12.5" style="stroke:#181818;stroke-width:0.5;" width="50" x="357.5" y="82.5938"/><line style="stroke:#181818;stroke-width:0.5;" x1="357.5" x2="407.5" y1="108.8906" y2="108.8906"/><text fill="#000000" font-family="'DejaVu Sans'" font-size="14" lengthAdjust="spacing" textLength="4.4502" x="380.2749" y="100.5889">&#183;</text></g><g class="entity" data-qualified-name="Dawg.c2" data-source-line="34" id="ent0013"><rect fill="#F1F1F1" height="50" rx="12.5" ry="12.5" style="stroke:#181818;stroke-width:0.5;" width="50" x="323.5" y="185.5938"/><line style="stroke:#181818;stroke-width:0.5;" x1="323.5" x2="373.5" y1="211.8906" y2="211.8906"/><text fill="#000000" font-family="'DejaVu Sans'" font-size="14" lengthAdjust="spacing" textLength="7.6973" x="344.6514" y="203.5889">c</text></g><g class="entity" data-qualified-name="Dawg.b2" data-source-line="35" id="ent0014"><rect fill="#F1F1F1" height="50" rx="12.5" ry="12.5" style="stroke:#181818;stroke-width:0.5;" width="50" x="391.5" y="185.5938"/><line style="stroke:#181818;stroke-width:0.5;" x1="391.5" x2="441.5" y1="211.8906" y2="211.8906"/><text fill="#000000" font-family="'DejaVu Sans'" font-size="14" lengthAdjust="spacing" textLength="8.8867" x="412.0566" y="203.5889">b</text></g><g class="entity" data-qualified-name="Dawg.a2" data-source-line="36" id="ent0015"><rect fill="#F1F1F1" height="50" rx="12.5" ry="12.5" style="stroke:#181818;stroke-width:0.5;" width="50" x="357.5" y="288.5938"/><line style="stroke:#181818;stroke-width:0.5;" x1="357.5" x2="407.5" y1="314.8906" y2="314.8906"/><text fill="#000000" font-family="'DejaVu Sans'" font-size="14" lengthAdjust="spacing" textLength="8.5791" x="378.2104" y="306.5889">a</text></g><g class="entity" data-qualified-name="Dawg.t2" data-source-line="37" id="ent0016"><rect fill="#F1F1F1" height="50" rx="12.5" ry="12.5" style="stroke:#181818;stroke-width:0.5;" width="50" x="357.5" y="391.5938"/><line style="stroke:#181818;stroke-width:0.5;" x1="357.5" x2="407.5" y1="417.8906" y2="417.8906"/><text fill="#000000" font-family="'DejaVu Sans'" font-size="14" lengthAdjust="spacing" textLength="5.4893" x="379.7554" y="409.5889">t</text></g><g class="entity" data-qualified-name="Dawg.s2" data-source-line="38" id="ent0017"><rect fill="#F1F1F1" height="50" rx="12.5" ry="12.5" style="stroke:#181818;stroke-width:0.5;" width="50" x="357.5" y="494.5938"/><line style="stroke:#181818;stroke-width:0.5;" x1="357.5" x2="407.5" y1="520.8906" y2="520.8906"/><text fill="#000000" font-family="'DejaVu Sans'" font-size="14" lengthAdjust="spacing" textLength="23.4746" x="370.7627" y="512.5889">s &#10003;</text></g><!--link r2 to c2--><g class="link" data-entity-1="ent0012" data-entity-2="ent0013" data-link-type="dependency" data-source-line="39" id="lnk26"><path d="M374.27,133.0438 C368.92,148.9237 363.5873,164.7957 358.2473,180.6357" fill="none" id="r2-to-c2" style="stroke:#37474F;stroke-width:1;"/><polygon fill="#37474F" points="356.65,185.3737,363.3155,178.1232,358.2473,180.6357,355.7347,175.5675,356.65,185.3737" style="stroke:#37474F;stroke-width:1;stroke-linejoin:miter;stroke-miterlimit:10;"/><text fill="#000000" font-family="'DejaVu Sans'" font-size="13" lengthAdjust="spacing" textLength="7.1475" x="368.54" y="163.6606">c</text></g><!--link r2 to b2--><g class="link" data-entity-1="ent0012" data-entity-2="ent0014" data-link-type="dependency" data-source-line="40" id="lnk27"><path d="M390.73,133.0438 C396.08,148.9237 401.4127,164.7957 406.7527,180.6357" fill="none" id="r2-to-b2" style="stroke:#37474F;stroke-width:1;"/><polygon fill="#37474F" points="408.35,185.3737,409.2653,175.5675,406.7527,180.6357,401.6845,178.1232,408.35,185.3737" style="stroke:#37474F;stroke-width:1;stroke-linejoin:miter;stroke-miterlimit:10;"/><text fill="#000000" font-family="'DejaVu Sans'" font-size="13" lengthAdjust="spacing" textLength="8.252" x="402.54" y="163.6606">b</text></g><!--link c2 to a2--><g class="link" data-entity-1="ent0013" data-entity-2="ent0015" data-link-type="dependency" data-source-line="41" id="lnk28"><path d="M356.73,236.0438 C362.08,251.9237 367.4127,267.7957 372.7527,283.6357" fill="none" id="c2-to-a2" style="stroke:#37474F;stroke-width:1;"/><polygon fill="#37474F" points="374.35,288.3738,375.2653,278.5675,372.7527,283.6357,367.6845,281.1232,374.35,288.3738" style="stroke:#37474F;stroke-width:1;stroke-linejoin:miter;stroke-miterlimit:10;"/><text fill="#000000" font-family="'DejaVu Sans'" font-size="13" lengthAdjust="spacing" textLength="7.9663" x="368.54" y="266.6606">a</text></g><!--link b2 to a2--><g class="link" data-entity-1="ent0014" data-entity-2="ent0015" data-link-type="dependency" data-source-line="42" id="lnk29"><path d="M408.27,236.0438 C402.92,251.9237 397.5873,267.7957 392.2473,283.6357" fill="none" id="b2-to-a2" style="stroke:#37474F;stroke-width:1;"/><polygon fill="#37474F" points="390.65,288.3738,397.3155,281.1232,392.2473,283.6357,389.7347,278.5675,390.65,288.3738" style="stroke:#37474F;stroke-width:1;stroke-linejoin:miter;stroke-miterlimit:10;"/><text fill="#000000" font-family="'DejaVu Sans'" font-size="13" lengthAdjust="spacing" textLength="7.9663" x="402.54" y="266.6606">a</text></g><!--link a2 to t2--><g class="link" data-entity-1="ent0015" data-entity-2="ent0016" data-link-type="dependency" data-source-line="43" id="lnk30"><path d="M382.5,339.0438 C382.5,354.9238 382.5,370.5338 382.5,386.3738" fill="none" id="a2-to-t2" style="stroke:#37474F;stroke-width:1;"/><polygon fill="#37474F" points="382.5,391.3738,386.5,382.3738,382.5,386.3738,378.5,382.3738,382.5,391.3738" style="stroke:#37474F;stroke-width:1;stroke-linejoin:miter;stroke-miterlimit:10;"/><text fill="#000000" font-family="'DejaVu Sans'" font-size="13" lengthAdjust="spacing" textLength="5.0972" x="383.5" y="369.6606">t</text></g><!--link t2 to s2--><g class="link" data-entity-1="ent0016" data-entity-2="ent0017" data-link-type="dependency" data-source-line="44" id="lnk31"><path d="M382.5,442.0438 C382.5,457.9238 382.5,473.5338 382.5,489.3738" fill="none" id="t2-to-s2" style="stroke:#37474F;stroke-width:1;"/><polygon fill="#37474F" points="382.5,494.3738,386.5,485.3738,382.5,489.3738,378.5,485.3738,382.5,494.3738" style="stroke:#37474F;stroke-width:1;stroke-linejoin:miter;stroke-miterlimit:10;"/><text fill="#000000" font-family="'DejaVu Sans'" font-size="13" lengthAdjust="spacing" textLength="6.7729" x="383.5" y="472.6606">s</text></g></g><g class="entity" data-qualified-name="GMN32" data-source-line="48" id="ent0033"><path d="M275.39,617.5969 L275.39,688.1281 A0,0 0 0 0 275.39,688.1281 L660.2821,688.1281 A0,0 0 0 0 660.2821,688.1281 L660.2821,627.5969 L650.2821,617.5969 L471.84,617.5969 L467.84,558.0869 L463.84,617.5969 L275.39,617.5969 A0,0 0 0 0 275.39,617.5969" fill="#FEFFDD" style="stroke:#181818;stroke-width:0.5;"/><path d="M650.2821,617.5969 L650.2821,627.5969 L660.2821,627.5969 L650.2821,617.5969" fill="#FEFFDD" style="stroke:#181818;stroke-width:0.5;"/><text fill="#000000" font-family="'DejaVu Sans'" font-size="13" lengthAdjust="spacing" textLength="219.375" x="281.39" y="634.6638">The shared suffix "ats&#10003;" is stored</text><text fill="#000000" font-family="'DejaVu Sans'" font-size="13" font-weight="700" lengthAdjust="spacing" textLength="34.709" x="504.8973" y="634.6638">once</text><text fill="#000000" font-family="'DejaVu Sans'" font-size="13" lengthAdjust="spacing" textLength="4.3799" x="539.6063" y="634.6638">:</text><text fill="#000000" font-family="'DejaVu Sans'" font-size="13" lengthAdjust="spacing" textLength="294.7026" x="281.39" y="649.7966">both c and b transition into the same node a.</text><text fill="#000000" font-family="'DejaVu Sans'" font-size="13" lengthAdjust="spacing" textLength="363.8921" x="281.39" y="664.9294">Minimization merges states with equal *right language*</text><text fill="#000000" font-family="'DejaVu Sans'" font-size="13" lengthAdjust="spacing" textLength="247.3682" x="281.39" y="680.0622">(set of strings leading to acceptance).</text></g><?plantuml-src hLHDJnin4BtdLpo50s4BaTY2e4XKIfkawg6zX7vSnnjdOx9hf_P4G56b_eVssF_1dP_2BwdjTM2LS6GFAxstCyypRxopY_CNV3gx660u-FO1lLffLLC5AcwAIXKOZWTxS7Eoqc7oPJp--7qqsOSsZCkLOoojdAbhwVfUOdHDzRAIO6bhECbdk4L1xFOX_1k_-i33lp-eoIuSIFiZ2hbafKlqPafJvSzXOXcaWANI2-0SougK1bibqMiEYzM4BAEhcxqON5efjG-EnQkVSfgQIGclu5QpLcP8Ub7xt4Bf9LcgVQV5ehHcfQVlJMKiTiRnQKLCvOnM5O-DvizKItI7yfA-hZ0XxRgjk86rvYg9l3uvEZaQTrYnjpTDAiqaovhUfCioi35u-FqtJi1jkD_fH7VHlGXUXgXdxCJz7KxzTAVITK4ECTRtC7et6k6s0oID-xlusHu-KKLaYXP3aQ4Mmv7X5kF2bOYiQx4YCgAjXIGcMcf8Sc933qamyFOG1mTlVLquG-5nqM0Ac3oc1dF0x34ts0Nidl95m45FhFF5eu182k9HGYGD4KMUh8-3Qrc_UJ63_SSj-uTqLM9dT3e-7hrvplvyo_vyoyHyQo3vra3oPmSIM9itzkN9leH5dkme6anvSaDiO6emvsjl6kpojJD-aqW8msngc5dis8TTp6LpmQThXxh-4iVAbA-CJVYIPKONCilEmhc6voZyLfb2-6tX_oN5ocWepGOSrCA_5fm5zNtyfsPJK0ogfIsbQnnmk59UIlvO-IMOMLNE6HNfSaMbp7nYpo-sKAZZC327Ij8qJCuVq-mpyZNjzJlILn9w-my0?></g></svg>