<?xml version="1.0" encoding="UTF-8" standalone="no"?>
<!DOCTYPE svg PUBLIC "-//W3C//DTD SVG 1.1//EN"
 "http://www.w3.org/Graphics/SVG/1.1/DTD/svg11.dtd">
<!-- Generated by graphviz version 2.43.0 (0)
 -->
<!-- Title: scdawg_extension_graphs Pages: 1 -->
<svg width="610pt" height="850pt"
 viewBox="0.00 0.00 610.00 849.89" xmlns="http://www.w3.org/2000/svg" xmlns:xlink="http://www.w3.org/1999/xlink">
<g id="graph0" class="graph" transform="scale(1 1) rotate(0) translate(4 845.89)">
<title>scdawg_extension_graphs</title>
<polygon fill="#ffffff" stroke="transparent" points="-4,4 -4,-845.89 606,-845.89 606,4 -4,4"/>
<text text-anchor="middle" x="301" y="-826.69" font-family="DejaVu Sans" font-size="14.00" fill="#212121">SCDAWG of &quot;abcabcab&quot; — part 1 of 2: RIGHT extensions (→)</text>
<text text-anchor="middle" x="301" y="-811.69" font-family="DejaVu Sans" font-size="14.00" fill="#212121">append — the CDAWG&#39;s forward δ. See part 2 for the mirror LEFT&#45;extension column.</text>
<g id="clust1" class="cluster">
<title>cluster_right</title>
<path fill="#f1f8f4" stroke="#00695c" d="M218.25,-144C218.25,-144 410.25,-144 410.25,-144 416.25,-144 422.25,-150 422.25,-156 422.25,-156 422.25,-783.89 422.25,-783.89 422.25,-789.89 416.25,-795.89 410.25,-795.89 410.25,-795.89 218.25,-795.89 218.25,-795.89 212.25,-795.89 206.25,-789.89 206.25,-783.89 206.25,-783.89 206.25,-156 206.25,-156 206.25,-150 212.25,-144 218.25,-144"/>
<text text-anchor="middle" x="314.25" y="-780.69" font-family="DejaVu Sans" font-size="14.00" fill="#00695c">RIGHT extensions (→)</text>
<text text-anchor="middle" x="314.25" y="-765.69" font-family="DejaVu Sans" font-size="14.00" fill="#00695c">append — CDAWG forward δ</text>
</g>
<!-- r0 -->
<g id="node1" class="node">
<title>r0</title>
<ellipse fill="#eceff1" stroke="#37474f" stroke-width="1.4" cx="297.25" cy="-727.89" rx="18" ry="18"/>
<ellipse fill="none" stroke="#37474f" stroke-width="1.4" cx="297.25" cy="-727.89" rx="22" ry="22"/>
<text text-anchor="middle" x="297.25" y="-724.19" font-family="DejaVu Sans" font-size="14.00" fill="#212121">ε</text>
</g>
<!-- r1 -->
<g id="node2" class="node">
<title>r1</title>
<ellipse fill="#c8e6c9" stroke="#37474f" stroke-width="1.4" cx="262.25" cy="-644.89" rx="27" ry="18"/>
<text text-anchor="middle" x="262.25" y="-641.19" font-family="DejaVu Sans" font-size="14.00" fill="#212121">ab</text>
</g>
<!-- r0&#45;&gt;r1 -->
<g id="edge1" class="edge">
<title>r0&#45;&gt;r1</title>
<path fill="none" stroke="#37474f" stroke-width="1.4" d="M288.78,-707.28C284.18,-696.64 278.43,-683.34 273.46,-671.84"/>
<polygon fill="#37474f" stroke="#37474f" stroke-width="1.4" points="269.35,-662.32 277.44,-669.71 271.51,-666.83 273.5,-671.42 273.31,-671.5 273.13,-671.57 271.15,-666.98 269.18,-673.28 269.35,-662.32 269.35,-662.32"/>
<text text-anchor="middle" x="290.25" y="-680.69" font-family="DejaVu Sans" font-size="14.00" fill="#37474f">ab</text>
</g>
<!-- r3 -->
<g id="node4" class="node">
<title>r3</title>
<ellipse fill="#c8e6c9" stroke="#37474f" stroke-width="1.4" cx="290.25" cy="-486.89" rx="38.19" ry="18"/>
<text text-anchor="middle" x="290.25" y="-483.19" font-family="DejaVu Sans" font-size="14.00" fill="#212121">abcab</text>
</g>
<!-- r0&#45;&gt;r3 -->
<g id="edge4" class="edge">
<title>r0&#45;&gt;r3</title>
<path fill="none" stroke="#37474f" stroke-width="1.4" d="M301.39,-706.24C302.16,-701.54 302.85,-696.56 303.25,-691.89 303.82,-685.25 303.35,-683.56 303.25,-676.89 302.36,-619.54 304.4,-605.02 299.25,-547.89 298.27,-537.07 296.62,-525.22 295,-514.94"/>
<polygon fill="#37474f" stroke="#37474f" stroke-width="1.4" points="293.35,-504.9 299.41,-514.03 294.36,-509.8 295.17,-514.73 294.97,-514.76 294.77,-514.8 293.96,-509.86 290.53,-515.49 293.35,-504.9 293.35,-504.9"/>
<text text-anchor="middle" x="323.75" y="-601.69" font-family="DejaVu Sans" font-size="14.00" fill="#37474f">abcab</text>
</g>
<!-- r2 -->
<g id="node3" class="node">
<title>r2</title>
<ellipse fill="#c8e6c9" stroke="#37474f" stroke-width="1.4" cx="259.25" cy="-565.89" rx="32.49" ry="18"/>
<text text-anchor="middle" x="259.25" y="-562.19" font-family="DejaVu Sans" font-size="14.00" fill="#212121">abca</text>
</g>
<!-- r1&#45;&gt;r2 -->
<g id="edge2" class="edge">
<title>r1&#45;&gt;r2</title>
<path fill="none" stroke="#37474f" stroke-width="1.4" d="M261.58,-626.8C261.21,-617.23 260.74,-605.07 260.31,-594.21"/>
<polygon fill="#37474f" stroke="#37474f" stroke-width="1.4" points="259.91,-583.93 264.8,-593.75 260.31,-588.92 260.5,-593.92 260.3,-593.92 260.1,-593.93 259.91,-588.94 255.81,-594.1 259.91,-583.93 259.91,-583.93"/>
<text text-anchor="middle" x="269.25" y="-601.69" font-family="DejaVu Sans" font-size="14.00" fill="#37474f">ca</text>
</g>
<!-- r2&#45;&gt;r3 -->
<g id="edge3" class="edge">
<title>r2&#45;&gt;r3</title>
<path fill="none" stroke="#37474f" stroke-width="1.4" d="M265.98,-548.18C269.97,-538.26 275.12,-525.46 279.65,-514.21"/>
<polygon fill="#37474f" stroke="#37474f" stroke-width="1.4" points="283.43,-504.83 283.87,-515.79 281.75,-509.54 279.88,-514.18 279.69,-514.11 279.51,-514.03 281.38,-509.4 275.52,-512.43 283.43,-504.83 283.43,-504.83"/>
<text text-anchor="middle" x="282.25" y="-522.69" font-family="DejaVu Sans" font-size="14.00" fill="#37474f">b</text>
</g>
<!-- r4 -->
<g id="node5" class="node">
<title>r4</title>
<ellipse fill="#c8e6c9" stroke="#37474f" stroke-width="1.4" cx="290.25" cy="-407.89" rx="42.79" ry="18"/>
<text text-anchor="middle" x="290.25" y="-404.19" font-family="DejaVu Sans" font-size="14.00" fill="#212121">abcabc</text>
</g>
<!-- r3&#45;&gt;r4 -->
<g id="edge5" class="edge">
<title>r3&#45;&gt;r4</title>
<path fill="none" stroke="#37474f" stroke-width="1.4" d="M290.25,-468.8C290.25,-459.23 290.25,-447.07 290.25,-436.21"/>
<polygon fill="#37474f" stroke="#37474f" stroke-width="1.4" points="290.25,-425.93 294.75,-435.93 290.45,-430.93 290.45,-435.93 290.25,-435.93 290.05,-435.93 290.05,-430.93 285.75,-435.93 290.25,-425.93 290.25,-425.93"/>
<text text-anchor="middle" x="294.25" y="-443.69" font-family="DejaVu Sans" font-size="14.00" fill="#37474f">c</text>
</g>
<!-- r5 -->
<g id="node6" class="node">
<title>r5</title>
<ellipse fill="#c8e6c9" stroke="#37474f" stroke-width="1.4" cx="290.25" cy="-328.89" rx="48.19" ry="18"/>
<text text-anchor="middle" x="290.25" y="-325.19" font-family="DejaVu Sans" font-size="14.00" fill="#212121">abcabca</text>
</g>
<!-- r4&#45;&gt;r5 -->
<g id="edge6" class="edge">
<title>r4&#45;&gt;r5</title>
<path fill="none" stroke="#37474f" stroke-width="1.4" d="M290.25,-389.8C290.25,-380.23 290.25,-368.07 290.25,-357.21"/>
<polygon fill="#37474f" stroke="#37474f" stroke-width="1.4" points="290.25,-346.93 294.75,-356.93 290.45,-351.93 290.45,-356.93 290.25,-356.93 290.05,-356.93 290.05,-351.93 285.75,-356.93 290.25,-346.93 290.25,-346.93"/>
<text text-anchor="middle" x="294.75" y="-364.69" font-family="DejaVu Sans" font-size="14.00" fill="#37474f">a</text>
</g>
<!-- r6 -->
<g id="node7" class="node">
<title>r6</title>
<ellipse fill="#c8e6c9" stroke="#37474f" stroke-width="1.4" cx="290.25" cy="-209.95" rx="53.89" ry="53.89"/>
<ellipse fill="none" stroke="#37474f" stroke-width="1.4" cx="290.25" cy="-209.95" rx="57.89" ry="57.89"/>
<text text-anchor="middle" x="290.25" y="-206.25" font-family="DejaVu Sans" font-size="14.00" fill="#212121">abcabcab</text>
</g>
<!-- r5&#45;&gt;r6 -->
<g id="edge7" class="edge">
<title>r5&#45;&gt;r6</title>
<path fill="none" stroke="#37474f" stroke-width="1.4" d="M290.25,-310.89C290.25,-301.98 290.25,-290.42 290.25,-278.35"/>
<polygon fill="#37474f" stroke="#37474f" stroke-width="1.4" points="290.25,-268.13 294.75,-278.13 290.45,-273.13 290.45,-278.13 290.25,-278.13 290.05,-278.13 290.05,-273.13 285.75,-278.13 290.25,-268.13 290.25,-268.13"/>
<text text-anchor="middle" x="295.25" y="-285.69" font-family="DejaVu Sans" font-size="14.00" fill="#37474f">b</text>
</g>
<!-- legend -->
<g id="node8" class="node">
<title>legend</title>
<polygon fill="#fff9c4" stroke="#fbc02d" stroke-width="1.4" points="402.75,-121 171.75,-121 171.75,0 408.75,0 408.75,-115 402.75,-121"/>
<polyline fill="none" stroke="#fbc02d" stroke-width="1.4" points="402.75,-121 402.75,-115 "/>
<polyline fill="none" stroke="#fbc02d" stroke-width="1.4" points="408.75,-115 402.75,-115 "/>
<text text-anchor="start" x="183.25" y="-106.5" font-family="DejaVu Sans" font-weight="bold" font-size="10.00" fill="#212121">Legend — part 1 of 2 (RIGHT)</text>
<text text-anchor="start" x="183.25" y="-89.5" font-family="DejaVu Sans" font-size="10.00" fill="#37474f">━━▶ right extension (append)</text>
<text text-anchor="start" x="183.25" y="-73.5" font-family="DejaVu Sans" font-size="10.00" fill="#37474f">plain CDAWG has only these edges</text>
<text text-anchor="start" x="183.25" y="-57.5" font-family="DejaVu Sans" font-size="10.00" fill="#212121">nodes = prime subwords (longest per class)</text>
<text text-anchor="start" x="183.25" y="-41.5" font-family="DejaVu Sans" font-size="10.00" fill="#212121">◎ = source/sink (ε and the whole word)</text>
<text text-anchor="start" x="183.25" y="-25.5" font-family="DejaVu Sans" font-size="10.00" fill="#212121">part 2 mirrors this column ⇒ the</text>
<text text-anchor="start" x="183.25" y="-9.5" font-family="DejaVu Sans" font-size="10.00" fill="#212121">&quot;symmetric&quot; in SCDAWG (left extension, ←)</text>
</g>
<!-- r6&#45;&gt;legend -->
</g>
</svg>
