<svg xmlns="http://www.w3.org/2000/svg" xmlns:xlink="http://www.w3.org/1999/xlink" contentStyleType="text/css" data-diagram-type="ACTIVITY" height="540px" preserveAspectRatio="none" style="width:1362px;height:540px;background:#FFFFFF;" version="1.1" viewBox="0 0 1362 540" width="1362px" zoomAndPan="magnify"><?plantuml $version$?><defs/><g><g class="title" data-source-line="13"><text fill="#000000" font-family="'DejaVu Sans'" font-size="14" font-weight="700" lengthAdjust="spacing" textLength="271.4072" x="544.7907" y="32.9951">Choosing a libdictenstein backend</text></g><ellipse cx="549.5044" cy="62.2969" fill="#222222" rx="10" ry="10" style="stroke:#222222;stroke-width:1;"/><rect fill="#F1F1F1" height="47.9375" rx="12.5" ry="12.5" style="stroke:#37474F;stroke-width:0.5;" width="171.418" x="463.7954" y="92.2969"/><text fill="#000000" font-family="'DejaVu Sans'" font-size="12" lengthAdjust="spacing" textLength="119.4609" x="473.7954" y="113.4355">Store a set of terms</text><text fill="#000000" font-family="'DejaVu Sans'" font-size="12" lengthAdjust="spacing" textLength="151.418" x="473.7954" y="127.4043">(optionally term &#8594; value)</text><polygon fill="#FFF9C4" points="463.3091,160.2344,635.6997,160.2344,647.6997,173.0391,635.6997,185.8438,463.3091,185.8438,451.3091,173.0391,463.3091,160.2344" style="stroke:#37474F;stroke-width:0.5;stroke-linejoin:miter;stroke-miterlimit:10;"/><text fill="#000000" font-family="'DejaVu Sans'" font-size="11" lengthAdjust="spacing" textLength="33.564" x="463.3091" y="170.4448">Match</text><text fill="#000000" font-family="'DejaVu Sans'" font-size="11" font-weight="700" lengthAdjust="spacing" textLength="65.5059" x="500.3696" y="170.4448">substrings</text><text fill="#000000" font-family="'DejaVu Sans'" font-size="11" lengthAdjust="spacing" textLength="66.3276" x="569.3721" y="170.4448">(anywhere),</text><text fill="#000000" font-family="'DejaVu Sans'" font-size="11" lengthAdjust="spacing" textLength="95.1274" x="463.3091" y="183.2495">not just prefixes?</text><text fill="#000000" font-family="'DejaVu Sans'" font-size="11" lengthAdjust="spacing" textLength="19.0083" x="432.3008" y="170.4448">yes</text><text fill="#000000" font-family="'DejaVu Sans'" font-size="11" lengthAdjust="spacing" textLength="106.1328" x="647.6997" y="170.4448">prefix / whole-word</text><polygon fill="#FFF9C4" points="140.7195,195.8438,304.8762,195.8438,316.8762,207.8438,304.8762,219.8438,140.7195,219.8438,128.7195,207.8438,140.7195,195.8438" style="stroke:#37474F;stroke-width:0.5;stroke-linejoin:miter;stroke-miterlimit:10;"/><text fill="#000000" font-family="'DejaVu Sans'" font-size="11" lengthAdjust="spacing" textLength="50.9019" x="140.7195" y="211.6519">Corpus is</text><text fill="#000000" font-family="'DejaVu Sans'" font-size="11" font-weight="700" lengthAdjust="spacing" textLength="34.7778" x="195.1179" y="211.6519">static</text><text fill="#000000" font-family="'DejaVu Sans'" font-size="11" lengthAdjust="spacing" textLength="71.4839" x="233.3923" y="211.6519">(build once)?</text><text fill="#000000" font-family="'DejaVu Sans'" font-size="11" lengthAdjust="spacing" textLength="19.0083" x="109.7112" y="205.2495">yes</text><text fill="#000000" font-family="'DejaVu Sans'" font-size="11" lengthAdjust="spacing" textLength="45.5469" x="316.8762" y="205.2495">mutable</text><rect fill="#C8E6C9" height="61.9063" rx="12.5" ry="12.5" style="stroke:#37474F;stroke-width:0.5;" width="200.4453" x="16" y="229.8438"/><text fill="#000000" font-family="'DejaVu Sans'" font-size="12" font-weight="700" lengthAdjust="spacing" textLength="148.3418" x="26" y="250.9824">Scdawg / ScdawgChar</text><text fill="#000000" font-family="'DejaVu Sans'" font-size="12" lengthAdjust="spacing" textLength="161.8301" x="26" y="264.9512">compact symmetric DAWG</text><text fill="#000000" font-family="'DejaVu Sans'" font-size="12" lengthAdjust="spacing" textLength="180.4453" x="26" y="278.9199">(bidirectional substring index)</text><rect fill="#C8E6C9" height="61.9063" rx="12.5" ry="12.5" style="stroke:#37474F;stroke-width:0.5;" width="185.8555" x="236.4453" y="229.8438"/><text fill="#000000" font-family="'DejaVu Sans'" font-size="12" font-weight="700" lengthAdjust="spacing" textLength="156.75" x="246.4453" y="250.9824">SuffixAutomaton(Char)</text><text fill="#000000" font-family="'DejaVu Sans'" font-size="12" lengthAdjust="spacing" textLength="165.8555" x="246.4453" y="264.9512">online substring automaton</text><text fill="#000000" font-family="'DejaVu Sans'" font-size="12" lengthAdjust="spacing" textLength="108.0703" x="246.4453" y="278.9199">(&#8804; 2&#183;n &#8722; 1 states)</text><polygon fill="#FFF9C4" points="222.7979,297.75,234.7979,309.75,222.7979,321.75,210.7979,309.75,222.7979,297.75" style="stroke:#37474F;stroke-width:0.5;stroke-linejoin:miter;stroke-miterlimit:10;"/><ellipse cx="222.7979" cy="367.75" fill="none" rx="11" ry="11" style="stroke:#222222;stroke-width:1;"/><ellipse cx="222.7979" cy="367.75" fill="#222222" rx="6" ry="6" style="stroke:#222222;stroke-width:1;"/><polygon fill="#FFF9C4" points="825.3859,195.8438,944.2535,195.8438,956.2535,208.6484,944.2535,221.4531,825.3859,221.4531,813.3859,208.6484,825.3859,195.8438" style="stroke:#37474F;stroke-width:0.5;stroke-linejoin:miter;stroke-miterlimit:10;"/><text fill="#000000" font-family="'DejaVu Sans'" font-size="11" lengthAdjust="spacing" textLength="26.5063" x="825.3859" y="206.0542">Must</text><text fill="#000000" font-family="'DejaVu Sans'" font-size="11" font-weight="700" lengthAdjust="spacing" textLength="88.8647" x="855.3888" y="206.0542">persist to disk</text><text fill="#000000" font-family="'DejaVu Sans'" font-size="11" lengthAdjust="spacing" textLength="116.1069" x="825.3859" y="218.8589">and survive crashes?</text><text fill="#000000" font-family="'DejaVu Sans'" font-size="11" lengthAdjust="spacing" textLength="19.0083" x="794.3776" y="206.0542">yes</text><text fill="#000000" font-family="'DejaVu Sans'" font-size="11" lengthAdjust="spacing" textLength="59.9575" x="956.2535" y="206.0542">in-memory</text><polygon fill="#FFF9C4" points="598.0712,231.4531,707.9369,231.4531,719.9369,244.2578,707.9369,257.0625,598.0712,257.0625,586.0712,244.2578,598.0712,231.4531" style="stroke:#37474F;stroke-width:0.5;stroke-linejoin:miter;stroke-miterlimit:10;"/><text fill="#000000" font-family="'DejaVu Sans'" font-size="11" lengthAdjust="spacing" textLength="23.2139" x="598.0712" y="241.6636">Map</text><text fill="#000000" font-family="'DejaVu Sans'" font-size="11" font-weight="700" lengthAdjust="spacing" textLength="69.6201" x="624.7816" y="241.6636">term &#8596; u64</text><text fill="#000000" font-family="'DejaVu Sans'" font-size="11" lengthAdjust="spacing" textLength="10.0386" x="697.8983" y="241.6636">id</text><text fill="#000000" font-family="'DejaVu Sans'" font-size="11" lengthAdjust="spacing" textLength="85.4702" x="598.0712" y="254.4683">(a vocabulary)?</text><text fill="#000000" font-family="'DejaVu Sans'" font-size="11" lengthAdjust="spacing" textLength="19.0083" x="567.0629" y="241.6636">yes</text><text fill="#000000" font-family="'DejaVu Sans'" font-size="11" lengthAdjust="spacing" textLength="65.9033" x="719.9369" y="241.6636">key &#8594; value</text><rect fill="#BBDEFB" height="47.9375" rx="12.5" ry="12.5" style="stroke:#37474F;stroke-width:0.5;" width="175.6191" x="463.692" y="267.0625"/><text fill="#000000" font-family="'DejaVu Sans'" font-size="12" font-weight="700" lengthAdjust="spacing" textLength="155.6191" x="473.692" y="288.2012">PersistentVocabARTrie</text><text fill="#000000" font-family="'DejaVu Sans'" font-size="12" lengthAdjust="spacing" textLength="111.9492" x="473.692" y="302.1699">bijective term &#8596; id</text><rect fill="#BBDEFB" height="61.9063" rx="12.5" ry="12.5" style="stroke:#37474F;stroke-width:0.5;" width="190.3906" x="659.3112" y="267.0625"/><text fill="#000000" font-family="'DejaVu Sans'" font-size="12" font-weight="700" lengthAdjust="spacing" textLength="170.3906" x="669.3112" y="288.2012">PersistentARTrie / &#8230;Char</text><text fill="#000000" font-family="'DejaVu Sans'" font-size="12" lengthAdjust="spacing" textLength="52.4766" x="669.3112" y="302.1699">lock-free</text><text fill="#000000" font-family="'DejaVu Sans'" font-size="12" font-weight="700" lengthAdjust="spacing" textLength="51.9902" x="725.6022" y="302.1699">durable</text><text fill="#000000" font-family="'DejaVu Sans'" font-size="12" lengthAdjust="spacing" textLength="23.877" x="781.4069" y="302.1699">ART</text><text fill="#000000" font-family="'DejaVu Sans'" font-size="12" lengthAdjust="spacing" textLength="115.3887" x="669.3112" y="316.1387">(mmap or io_uring)</text><polygon fill="#FFF9C4" points="653.004,334.9688,665.004,346.9688,653.004,358.9688,641.004,346.9688,653.004,334.9688" style="stroke:#37474F;stroke-width:0.5;stroke-linejoin:miter;stroke-miterlimit:10;"/><ellipse cx="653.004" cy="404.9688" fill="none" rx="11" ry="11" style="stroke:#222222;stroke-width:1;"/><ellipse cx="653.004" cy="404.9688" fill="#222222" rx="6" ry="6" style="stroke:#222222;stroke-width:1;"/><polygon fill="#FFF9C4" points="1038.6176,231.4531,1194.6532,231.4531,1206.6532,243.4531,1194.6532,255.4531,1038.6176,255.4531,1026.6176,243.4531,1038.6176,231.4531" style="stroke:#37474F;stroke-width:0.5;stroke-linejoin:miter;stroke-miterlimit:10;"/><text fill="#000000" font-family="'DejaVu Sans'" font-size="11" lengthAdjust="spacing" textLength="28.7461" x="1038.6176" y="247.2612">Need</text><text fill="#000000" font-family="'DejaVu Sans'" font-size="11" font-weight="700" lengthAdjust="spacing" textLength="56.5898" x="1070.8602" y="247.2612">remove()</text><text fill="#000000" font-family="'DejaVu Sans'" font-size="11" lengthAdjust="spacing" textLength="63.7065" x="1130.9467" y="247.2612">at runtime?</text><text fill="#000000" font-family="'DejaVu Sans'" font-size="11" lengthAdjust="spacing" textLength="19.0083" x="1007.6093" y="240.8589">yes</text><text fill="#000000" font-family="'DejaVu Sans'" font-size="11" lengthAdjust="spacing" textLength="135.3354" x="1206.6532" y="240.8589">insert-only / read-mostly</text><rect fill="#C8E6C9" height="61.9063" rx="12.5" ry="12.5" style="stroke:#37474F;stroke-width:0.5;" width="223.1738" x="889.7018" y="265.4531"/><text fill="#000000" font-family="'DejaVu Sans'" font-size="12" font-weight="700" lengthAdjust="spacing" textLength="203.1738" x="899.7018" y="286.5918">DynamicDawg / &#8230;Char / &#8230;U64</text><text fill="#000000" font-family="'DejaVu Sans'" font-size="12" lengthAdjust="spacing" textLength="170.6836" x="899.7018" y="300.5605">thread-safe insert + remove</text><text fill="#000000" font-family="'DejaVu Sans'" font-size="12" lengthAdjust="spacing" textLength="91.1367" x="899.7018" y="314.5293">(suffix-sharing)</text><rect fill="#C8E6C9" height="61.9063" rx="12.5" ry="12.5" style="stroke:#37474F;stroke-width:0.5;" width="198.2129" x="1132.8756" y="265.4531"/><text fill="#000000" font-family="'DejaVu Sans'" font-size="12" font-weight="700" lengthAdjust="spacing" textLength="167.0918" x="1142.8756" y="286.5918">DoubleArrayTrie / &#8230;Char</text><text fill="#000000" font-family="'DejaVu Sans'" font-size="12" lengthAdjust="spacing" textLength="178.2129" x="1142.8756" y="300.5605">fastest lookup, most compact</text><text fill="#000000" font-family="'DejaVu Sans'" font-size="12" lengthAdjust="spacing" textLength="128.0215" x="1142.8756" y="314.5293">(BASE/CHECK arrays)</text><polygon fill="#FFF9C4" points="1116.6354,333.3594,1128.6354,345.3594,1116.6354,357.3594,1104.6354,345.3594,1116.6354,333.3594" style="stroke:#37474F;stroke-width:0.5;stroke-linejoin:miter;stroke-miterlimit:10;"/><ellipse cx="1116.6354" cy="403.3594" fill="none" rx="11" ry="11" style="stroke:#222222;stroke-width:1;"/><ellipse cx="1116.6354" cy="403.3594" fill="#222222" rx="6" ry="6" style="stroke:#222222;stroke-width:1;"/><line style="stroke:#37474F;stroke-width:1;" x1="549.5044" x2="549.5044" y1="72.2969" y2="92.2969"/><polygon fill="#37474F" points="545.5044,82.2969,549.5044,92.2969,553.5044,82.2969,549.5044,86.2969" style="stroke:#37474F;stroke-width:1;stroke-linejoin:miter;stroke-miterlimit:10;"/><line style="stroke:#37474F;stroke-width:1;" x1="128.7195" x2="116.2227" y1="207.8438" y2="207.8438"/><line style="stroke:#37474F;stroke-width:1;" x1="116.2227" x2="116.2227" y1="207.8438" y2="229.8438"/><polygon fill="#37474F" points="112.2227,219.8438,116.2227,229.8438,120.2227,219.8438,116.2227,223.8438" style="stroke:#37474F;stroke-width:1;stroke-linejoin:miter;stroke-miterlimit:10;"/><line style="stroke:#37474F;stroke-width:1;" x1="316.8762" x2="329.373" y1="207.8438" y2="207.8438"/><line style="stroke:#37474F;stroke-width:1;" x1="329.373" x2="329.373" y1="207.8438" y2="229.8438"/><polygon fill="#37474F" points="325.373,219.8438,329.373,229.8438,333.373,219.8438,329.373,223.8438" style="stroke:#37474F;stroke-width:1;stroke-linejoin:miter;stroke-miterlimit:10;"/><line style="stroke:#37474F;stroke-width:1;" x1="116.2227" x2="116.2227" y1="291.75" y2="309.75"/><line style="stroke:#37474F;stroke-width:1;" x1="116.2227" x2="210.7979" y1="309.75" y2="309.75"/><polygon fill="#37474F" points="200.7979,305.75,210.7979,309.75,200.7979,313.75,204.7979,309.75" style="stroke:#37474F;stroke-width:1;stroke-linejoin:miter;stroke-miterlimit:10;"/><line style="stroke:#37474F;stroke-width:1;" x1="329.373" x2="329.373" y1="291.75" y2="309.75"/><line style="stroke:#37474F;stroke-width:1;" x1="329.373" x2="234.7979" y1="309.75" y2="309.75"/><polygon fill="#37474F" points="244.7979,305.75,234.7979,309.75,244.7979,313.75,240.7979,309.75" style="stroke:#37474F;stroke-width:1;stroke-linejoin:miter;stroke-miterlimit:10;"/><line style="stroke:#37474F;stroke-width:1;" x1="222.7979" x2="222.7979" y1="321.75" y2="356.75"/><polygon fill="#37474F" points="218.7979,346.75,222.7979,356.75,226.7979,346.75,222.7979,350.75" style="stroke:#37474F;stroke-width:1;stroke-linejoin:miter;stroke-miterlimit:10;"/><line style="stroke:#37474F;stroke-width:1;" x1="586.0712" x2="551.5016" y1="244.2578" y2="244.2578"/><line style="stroke:#37474F;stroke-width:1;" x1="551.5016" x2="551.5016" y1="244.2578" y2="267.0625"/><polygon fill="#37474F" points="547.5016,257.0625,551.5016,267.0625,555.5016,257.0625,551.5016,261.0625" style="stroke:#37474F;stroke-width:1;stroke-linejoin:miter;stroke-miterlimit:10;"/><line style="stroke:#37474F;stroke-width:1;" x1="719.9369" x2="754.5065" y1="244.2578" y2="244.2578"/><line style="stroke:#37474F;stroke-width:1;" x1="754.5065" x2="754.5065" y1="244.2578" y2="267.0625"/><polygon fill="#37474F" points="750.5065,257.0625,754.5065,267.0625,758.5065,257.0625,754.5065,261.0625" style="stroke:#37474F;stroke-width:1;stroke-linejoin:miter;stroke-miterlimit:10;"/><line style="stroke:#37474F;stroke-width:1;" x1="551.5016" x2="551.5016" y1="315" y2="346.9688"/><line style="stroke:#37474F;stroke-width:1;" x1="551.5016" x2="641.004" y1="346.9688" y2="346.9688"/><polygon fill="#37474F" points="631.004,342.9688,641.004,346.9688,631.004,350.9688,635.004,346.9688" style="stroke:#37474F;stroke-width:1;stroke-linejoin:miter;stroke-miterlimit:10;"/><line style="stroke:#37474F;stroke-width:1;" x1="754.5065" x2="754.5065" y1="328.9688" y2="346.9688"/><line style="stroke:#37474F;stroke-width:1;" x1="754.5065" x2="665.004" y1="346.9688" y2="346.9688"/><polygon fill="#37474F" points="675.004,342.9688,665.004,346.9688,675.004,350.9688,671.004,346.9688" style="stroke:#37474F;stroke-width:1;stroke-linejoin:miter;stroke-miterlimit:10;"/><line style="stroke:#37474F;stroke-width:1;" x1="653.004" x2="653.004" y1="358.9688" y2="393.9688"/><polygon fill="#37474F" points="649.004,383.9688,653.004,393.9688,657.004,383.9688,653.004,387.9688" style="stroke:#37474F;stroke-width:1;stroke-linejoin:miter;stroke-miterlimit:10;"/><line style="stroke:#37474F;stroke-width:1;" x1="1026.6176" x2="1001.2887" y1="243.4531" y2="243.4531"/><line style="stroke:#37474F;stroke-width:1;" x1="1001.2887" x2="1001.2887" y1="243.4531" y2="265.4531"/><polygon fill="#37474F" points="997.2887,255.4531,1001.2887,265.4531,1005.2887,255.4531,1001.2887,259.4531" style="stroke:#37474F;stroke-width:1;stroke-linejoin:miter;stroke-miterlimit:10;"/><line style="stroke:#37474F;stroke-width:1;" x1="1206.6532" x2="1231.9821" y1="243.4531" y2="243.4531"/><line style="stroke:#37474F;stroke-width:1;" x1="1231.9821" x2="1231.9821" y1="243.4531" y2="265.4531"/><polygon fill="#37474F" points="1227.9821,255.4531,1231.9821,265.4531,1235.9821,255.4531,1231.9821,259.4531" style="stroke:#37474F;stroke-width:1;stroke-linejoin:miter;stroke-miterlimit:10;"/><line style="stroke:#37474F;stroke-width:1;" x1="1001.2887" x2="1001.2887" y1="327.3594" y2="345.3594"/><line style="stroke:#37474F;stroke-width:1;" x1="1001.2887" x2="1104.6354" y1="345.3594" y2="345.3594"/><polygon fill="#37474F" points="1094.6354,341.3594,1104.6354,345.3594,1094.6354,349.3594,1098.6354,345.3594" style="stroke:#37474F;stroke-width:1;stroke-linejoin:miter;stroke-miterlimit:10;"/><line style="stroke:#37474F;stroke-width:1;" x1="1231.9821" x2="1231.9821" y1="327.3594" y2="345.3594"/><line style="stroke:#37474F;stroke-width:1;" x1="1231.9821" x2="1128.6354" y1="345.3594" y2="345.3594"/><polygon fill="#37474F" points="1138.6354,341.3594,1128.6354,345.3594,1138.6354,349.3594,1134.6354,345.3594" style="stroke:#37474F;stroke-width:1;stroke-linejoin:miter;stroke-miterlimit:10;"/><line style="stroke:#37474F;stroke-width:1;" x1="1116.6354" x2="1116.6354" y1="357.3594" y2="392.3594"/><polygon fill="#37474F" points="1112.6354,382.3594,1116.6354,392.3594,1120.6354,382.3594,1116.6354,386.3594" style="stroke:#37474F;stroke-width:1;stroke-linejoin:miter;stroke-miterlimit:10;"/><line style="stroke:#37474F;stroke-width:1;" x1="813.3859" x2="653.004" y1="208.6484" y2="208.6484"/><line style="stroke:#37474F;stroke-width:1;" x1="653.004" x2="653.004" y1="208.6484" y2="231.4531"/><polygon fill="#37474F" points="649.004,221.4531,653.004,231.4531,657.004,221.4531,653.004,225.4531" style="stroke:#37474F;stroke-width:1;stroke-linejoin:miter;stroke-miterlimit:10;"/><line style="stroke:#37474F;stroke-width:1;" x1="956.2535" x2="1116.6354" y1="208.6484" y2="208.6484"/><line style="stroke:#37474F;stroke-width:1;" x1="1116.6354" x2="1116.6354" y1="208.6484" y2="231.4531"/><polygon fill="#37474F" points="1112.6354,221.4531,1116.6354,231.4531,1120.6354,221.4531,1116.6354,225.4531" style="stroke:#37474F;stroke-width:1;stroke-linejoin:miter;stroke-miterlimit:10;"/><line style="stroke:#37474F;stroke-width:1;" x1="451.3091" x2="222.7979" y1="173.0391" y2="173.0391"/><line style="stroke:#37474F;stroke-width:1;" x1="222.7979" x2="222.7979" y1="173.0391" y2="195.8438"/><polygon fill="#37474F" points="218.7979,185.8438,222.7979,195.8438,226.7979,185.8438,222.7979,189.8438" style="stroke:#37474F;stroke-width:1;stroke-linejoin:miter;stroke-miterlimit:10;"/><line style="stroke:#37474F;stroke-width:1;" x1="647.6997" x2="884.8197" y1="173.0391" y2="173.0391"/><line style="stroke:#37474F;stroke-width:1;" x1="884.8197" x2="884.8197" y1="173.0391" y2="195.8438"/><polygon fill="#37474F" points="880.8197,185.8438,884.8197,195.8438,888.8197,185.8438,884.8197,189.8438" style="stroke:#37474F;stroke-width:1;stroke-linejoin:miter;stroke-miterlimit:10;"/><line style="stroke:#37474F;stroke-width:1;" x1="549.5044" x2="549.5044" y1="140.2344" y2="160.2344"/><polygon fill="#37474F" points="545.5044,150.2344,549.5044,160.2344,553.5044,150.2344,549.5044,154.2344" style="stroke:#37474F;stroke-width:1;stroke-linejoin:miter;stroke-miterlimit:10;"/><g class="legend" data-source-line="43"><rect fill="none" height="79.1875" rx="7.5" ry="7.5" style="stroke:#000000;stroke-width:1;" width="276.54" x="1062.4486" y="436.9688"/><text fill="#000000" font-family="'DejaVu Sans'" font-size="14" lengthAdjust="spacing" textLength="36.5518" x="1071.8988" y="456.9639">Color</text><text fill="#000000" font-family="'DejaVu Sans'" font-size="14" lengthAdjust="spacing" textLength="46.334" x="1117.351" y="456.9639">Family</text><rect fill="#C8E6C9" height="16.2969" style="stroke:none;stroke-width:1;" width="45.4521" x="1067.4486" y="460.2656"/><text fill="#000000" font-family="'DejaVu Sans'" font-size="14" lengthAdjust="spacing" textLength="4.4502" x="1067.4486" y="473.2607">&#160;</text><text fill="#000000" font-family="'DejaVu Sans'" font-size="14" lengthAdjust="spacing" textLength="161.6494" x="1117.351" y="473.2607">in-memory (always on)</text><rect fill="#FFF59D" height="16.2969" style="stroke:none;stroke-width:1;" width="45.4521" x="1067.4486" y="476.5625"/><text fill="#000000" font-family="'DejaVu Sans'" font-size="14" lengthAdjust="spacing" textLength="4.4502" x="1067.4486" y="489.5576">&#160;</text><text fill="#000000" font-family="'DejaVu Sans'" font-size="14" lengthAdjust="spacing" textLength="182.9297" x="1117.351" y="489.5576">feature pathmap-backend</text><rect fill="#BBDEFB" height="16.2969" style="stroke:none;stroke-width:1;" width="45.4521" x="1067.4486" y="492.8594"/><text fill="#000000" font-family="'DejaVu Sans'" font-size="14" lengthAdjust="spacing" textLength="4.4502" x="1067.4486" y="505.8545">&#160;</text><text fill="#000000" font-family="'DejaVu Sans'" font-size="14" lengthAdjust="spacing" textLength="212.1875" x="1117.351" y="505.8545">feature persistent-artrie (disk)</text><line style="stroke:#000000;stroke-width:1;" x1="1067.4486" x2="1333.9886" y1="443.9688" y2="443.9688"/><line style="stroke:#000000;stroke-width:1;" x1="1067.4486" x2="1333.9886" y1="460.2656" y2="460.2656"/><line style="stroke:#000000;stroke-width:1;" x1="1067.4486" x2="1333.9886" y1="476.5625" y2="476.5625"/><line style="stroke:#000000;stroke-width:1;" x1="1067.4486" x2="1333.9886" y1="492.8594" y2="492.8594"/><line style="stroke:#000000;stroke-width:1;" x1="1067.4486" x2="1333.9886" y1="509.1563" y2="509.1563"/><line style="stroke:#000000;stroke-width:1;" x1="1067.4486" x2="1067.4486" y1="443.9688" y2="509.1563"/><line style="stroke:#000000;stroke-width:1;" x1="1112.9008" x2="1112.9008" y1="443.9688" y2="509.1563"/><line style="stroke:#000000;stroke-width:1;" x1="1333.9886" x2="1333.9886" y1="443.9688" y2="509.1563"/></g><?plantuml-src hLNBRjjM4DtpAmRE8Y8RmMZgFEoye8VT1a62e6xJZO5wI0x5QrtUIzo7509QP5Mqso2V4FGNkk-dw4iwLwHanbQw2XUIGCsSENFcTHUUVSCdkWjZpEQaSh0aANFQmFh39pXObY8hGOeq5vaZPHq91UdMjDHUvl0I325R5TgyE62aYPRiFgVc161cY1Gy0vHBREnGAn1gM56bJGC0MALa-D-2q7b3S5cZAokiXrs4IqRhFwdq15_Oax62IIatHEECe4iOvCBEMu0yPlzlAfET2rMZmMgZmSneh_8stJjdcwTdaLE1NhephTmRh0WEfdI5xpoSex87FRkHCNhPWVpmwEZHKHzab3cn4AwP2goqoiTxeXvFZlx7GPkSpDRuUFJu_eCznbzOTHmY9vmac9HQMw5cW5_fWYYoZhMFJiwvQOZDB3dG1JWobRrG0rqxeHLAsMnUmVgFZx10BcJy98f40OFNwBXvaiJwr789rSmc2GnGDSkI3CNtBfJI3gwyTL0RAiHxiYzYS2NtrQ0X6qS00MQYJUqj21kW73gH1PZK2-vGhJAARpe1d2J9UPRZSWQ7qFwOb6YIv49bkgenSs2RgY8cbS5qzDkFd4qgSc5uFZOfmOuoTtLEx-CdJv_UcJm-VJWvVlwS8v2q18FAEqmbNOVq1ISnyavNwBGQX9Xn2AgL58fweBYruS3hlpx3_N__KR3-yoDy3o53JkDcG9MBWh-jqtNKHcybumINfPOqN7Abjugz3f8cIJT3u3I4qGbCC0otDmkn8CWCslAsv1q4repGrVKJ-8T7BBh8cI_2GcUOUeccsIFzHectk-bz5sn7F__24npYf-8gQCpHTz0Y3xcEnzFJi_4crwsyl6TwFRKFlCLb2TOV_juMMEfiFYnuEJ7zt9jG86REbaozuWq4F0b2_-v37UBRaJkTEwMtL7QhxLgWDqGvXp3yUa43BZEW0-EL4nLzHPLfex0IsRJjouvp--lNeE-5SYKlt7neiI1kF4l6mNVGXc3wTjDVGyjUM_Az5hdc6lnu8VDS7i86hzBMoQRFH7lMXVSJDhSLB935vRQHMizzVG-2DtHpmop6e_FJmybFfvDNW070xY5oIyNDY_OpaZGBDyQ8MUcYLNTKLd36sZ3bLRJQeQrwDsNG7XgU-BYruGNvu7ZADjkRSUF4j5PTTNjMDmzBUrS2A3krtFu3?></g></svg>