<svg xmlns="http://www.w3.org/2000/svg" xmlns:xlink="http://www.w3.org/1999/xlink" contentStyleType="text/css" data-diagram-type="DESCRIPTION" height="537px" preserveAspectRatio="none" style="width:791px;height:537px;background:#FFFFFF;" version="1.1" viewBox="0 0 791 537" width="791px" zoomAndPan="magnify"><defs/><g><g class="title" data-source-line="15"><text fill="#000000" font-family="'DejaVu Sans'" font-size="15" font-weight="700" lengthAdjust="spacing" textLength="312.7441" x="235.6689" y="23.9233">Choosing a compact binary serializer</text></g><!--entity Q--><g class="entity" data-qualified-name="Q" data-source-line="17" id="ent0001"><rect fill="#FFE0B2" height="52.5938" rx="2.5" ry="2.5" style="stroke:#37474F;stroke-width:1.1;" width="207.7217" x="401" y="45.4609"/><text fill="#212121" font-family="'DejaVu Sans'" font-size="14" lengthAdjust="spacing" textLength="187.7217" x="411" y="68.4561">Must a non-Rust consumer</text><text fill="#212121" font-family="'DejaVu Sans'" font-size="14" lengthAdjust="spacing" textLength="141.0527" x="411" y="84.7529">read the dictionary?</text></g><!--entity B--><g class="entity" data-qualified-name="B" data-source-line="19" id="ent0002"><rect fill="#C8E6C9" height="68.8906" rx="2.5" ry="2.5" style="stroke:#37474F;stroke-width:1.1;" width="208.1865" x="279" y="176.4609"/><text fill="#212121" font-family="'DejaVu Sans'" font-size="14" lengthAdjust="spacing" textLength="19.0381" x="289" y="199.4561">No</text><text fill="#212121" font-family="'DejaVu Sans'" font-size="14" font-weight="700" lengthAdjust="spacing" textLength="137.7441" x="289" y="215.7529">BincodeSerializer</text><text fill="#212121" font-family="'DejaVu Sans'" font-size="14" lengthAdjust="spacing" textLength="188.1865" x="289" y="232.0498">compact Rust-native bytes</text></g><!--entity P--><g class="entity" data-qualified-name="P" data-source-line="20" id="ent0003"><rect fill="#C8E6C9" height="68.8906" rx="2.5" ry="2.5" style="stroke:#37474F;stroke-width:1.1;" width="214.4004" x="522" y="176.4609"/><text fill="#212121" font-family="'DejaVu Sans'" font-size="14" lengthAdjust="spacing" textLength="24.459" x="532" y="199.4561">Yes</text><text fill="#212121" font-family="'DejaVu Sans'" font-size="14" font-weight="700" lengthAdjust="spacing" textLength="144.0469" x="532" y="215.7529">ProtobufSerializer</text><text fill="#212121" font-family="'DejaVu Sans'" font-size="14" lengthAdjust="spacing" textLength="194.4004" x="532" y="232.0498">portable numbered schema</text></g><!--entity V--><g class="entity" data-qualified-name="V" data-source-line="22" id="ent0004"><rect fill="#E3F2FD" height="52.5938" rx="2.5" ry="2.5" style="stroke:#37474F;stroke-width:1.1;" width="151.2705" x="266.5" y="331.4609"/><text fill="#212121" font-family="'DejaVu Sans'" font-size="14" lengthAdjust="spacing" textLength="131.2705" x="276.5" y="354.4561">Do mapped values</text><text fill="#212121" font-family="'DejaVu Sans'" font-size="14" lengthAdjust="spacing" textLength="116.3682" x="276.5" y="370.7529">need to survive?</text></g><!--entity BV--><g class="entity" data-qualified-name="BV" data-source-line="23" id="ent0005"><rect fill="#BBDEFB" height="52.5938" rx="2.5" ry="2.5" style="stroke:#37474F;stroke-width:1.1;" width="185.7783" x="7" y="470.4609"/><text fill="#212121" font-family="'DejaVu Sans'" font-size="14" lengthAdjust="spacing" textLength="96.0859" x="17" y="493.4561">Byte backend</text><text fill="#212121" font-family="'DejaVu Sans'" font-size="14" font-weight="700" lengthAdjust="spacing" textLength="165.7783" x="17" y="509.7529">serialize_with_values</text></g><!--entity CV--><g class="entity" data-qualified-name="CV" data-source-line="24" id="ent0006"><rect fill="#BBDEFB" height="52.5938" rx="2.5" ry="2.5" style="stroke:#37474F;stroke-width:1.1;" width="227.3955" x="228.5" y="470.4609"/><text fill="#212121" font-family="'DejaVu Sans'" font-size="14" lengthAdjust="spacing" textLength="120.8662" x="238.5" y="493.4561">Unicode backend</text><text fill="#212121" font-family="'DejaVu Sans'" font-size="14" font-weight="700" lengthAdjust="spacing" textLength="207.3955" x="238.5" y="509.7529">serialize_with_values_char</text></g><!--entity G--><g class="entity" data-qualified-name="G" data-source-line="26" id="ent0007"><rect fill="#F0F4C3" height="68.8906" rx="2.5" ry="2.5" style="stroke:#37474F;stroke-width:1.1;" width="296.582" x="480.5" y="323.4609"/><text fill="#212121" font-family="'DejaVu Sans'" font-size="14" lengthAdjust="spacing" textLength="190.709" x="490.5" y="346.4561">Optional transport wrapper</text><text fill="#212121" font-family="'DejaVu Sans'" font-size="14" font-weight="700" lengthAdjust="spacing" textLength="142.8779" x="490.5" y="362.7529">GzipSerializer&lt;S&gt;</text><text fill="#212121" font-family="'DejaVu Sans'" font-size="14" lengthAdjust="spacing" textLength="276.582" x="490.5" y="379.0498">benchmark corpus-dependent trade-off</text></g><g class="entity" data-qualified-name="GMN15" data-source-line="37" id="ent0016"><path d="M490.5,475.4609 L490.5,518.0547 A0,0 0 0 0 490.5,518.0547 L775.3535,518.0547 A0,0 0 0 0 775.3535,518.0547 L775.3535,485.4609 L765.3535,475.4609 L636.39,475.4609 L629.98,392.4709 L628.39,475.4609 L490.5,475.4609 A0,0 0 0 0 490.5,475.4609" fill="#FEFFDD" style="stroke:#181818;stroke-width:0.5;"/><path d="M765.3535,475.4609 L765.3535,485.4609 L775.3535,485.4609 L765.3535,475.4609" fill="#FEFFDD" style="stroke:#181818;stroke-width:0.5;"/><text fill="#000000" font-family="'DejaVu Sans'" font-size="14" lengthAdjust="spacing" textLength="263.8535" x="496.5" y="493.4561">JSON, TOML, and newline text are not</text><text fill="#000000" font-family="'DejaVu Sans'" font-size="14" lengthAdjust="spacing" textLength="218.5313" x="496.5" y="509.7529">dictionary persistence formats.</text></g><!--link Q to B--><g class="link" data-entity-1="ent0001" data-entity-2="ent0002" data-link-type="dependency" data-source-line="28" id="lnk8"><path d="M482.05,98.7309 C462.52,120.6609 437.6453,148.597 416.3253,172.537" fill="none" id="Q-to-B" style="stroke:#37474F;stroke-width:1;"/><polygon fill="#37474F" points="413,176.2709,421.9727,172.2101,416.3253,172.537,415.9984,166.8896,413,176.2709" style="stroke:#37474F;stroke-width:1;stroke-linejoin:miter;stroke-miterlimit:10;"/><text fill="#000000" font-family="'DejaVu Sans'" font-size="14" lengthAdjust="spacing" textLength="17.4385" x="456" y="142.4561">no</text></g><!--link Q to P--><g class="link" data-entity-1="ent0001" data-entity-2="ent0003" data-link-type="dependency" data-source-line="29" id="lnk9"><path d="M528.32,98.7309 C548.18,120.6609 573.4846,148.624 595.1546,172.564" fill="none" id="Q-to-P" style="stroke:#37474F;stroke-width:1;"/><polygon fill="#37474F" points="598.51,176.2709,595.4358,166.9142,595.1546,172.564,589.5047,172.2828,598.51,176.2709" style="stroke:#37474F;stroke-width:1;stroke-linejoin:miter;stroke-miterlimit:10;"/><text fill="#000000" font-family="'DejaVu Sans'" font-size="14" lengthAdjust="spacing" textLength="24.1924" x="572" y="142.4561">yes</text></g><!--link B to V--><g class="link" data-entity-1="ent0002" data-entity-2="ent0004" data-link-type="dependency" data-source-line="30" id="lnk10"><path d="M370.58,245.6909 C367.26,255.2509 363.82,265.7109 361,275.4609 C355.64,294.0209 351.7761,310.4137 348.2861,326.5637" fill="none" id="B-to-V" style="stroke:#37474F;stroke-width:1;"/><polygon fill="#37474F" points="347.23,331.4509,353.0408,323.4989,348.2861,326.5637,345.2213,321.8091,347.23,331.4509" style="stroke:#37474F;stroke-width:1;stroke-linejoin:miter;stroke-miterlimit:10;"/><text fill="#000000" font-family="'DejaVu Sans'" font-size="14" lengthAdjust="spacing" textLength="117.3525" x="362" y="289.4561">mapped bincode</text></g><!--link V to BV--><g class="link" data-entity-1="ent0004" data-entity-2="ent0005" data-link-type="dependency" data-source-line="31" id="lnk11"><path d="M296.77,384.5709 C253.54,409.0409 193.0713,443.2779 149.7713,467.7879" fill="none" id="V-to-BV" style="stroke:#37474F;stroke-width:1;"/><polygon fill="#37474F" points="145.42,470.2509,155.2227,469.2985,149.7713,467.7879,151.2818,462.3365,145.42,470.2509" style="stroke:#37474F;stroke-width:1;stroke-linejoin:miter;stroke-miterlimit:10;"/><text fill="#000000" font-family="'DejaVu Sans'" font-size="14" lengthAdjust="spacing" textLength="66.9102" x="230" y="436.4561">Unit = u8</text></g><!--link V to CV--><g class="link" data-entity-1="ent0004" data-entity-2="ent0006" data-link-type="dependency" data-source-line="32" id="lnk12"><path d="M342,384.7309 C342,409.2209 342,440.8509 342,465.3109" fill="none" id="V-to-CV" style="stroke:#37474F;stroke-width:1;"/><polygon fill="#37474F" points="342,470.3109,346,461.3109,342,465.3109,338,461.3109,342,470.3109" style="stroke:#37474F;stroke-width:1;stroke-linejoin:miter;stroke-miterlimit:10;"/><text fill="#000000" font-family="'DejaVu Sans'" font-size="14" lengthAdjust="spacing" textLength="80.0352" x="343" y="436.4561">Unit = char</text></g><!--link B to G--><g class="link" data-entity-1="ent0002" data-entity-2="ent0007" data-link-type="dependency" data-source-line="33" id="lnk13"><path d="M440.06,245.5909 C479.66,268.9309 527.8926,297.3619 567.5226,320.7219" fill="none" id="B-to-G" style="stroke:#37474F;stroke-width:1;"/><polygon fill="#37474F" points="571.83,323.2609,566.1079,315.2448,567.5226,320.7219,562.0455,322.1366,571.83,323.2609" style="stroke:#37474F;stroke-width:1;stroke-linejoin:miter;stroke-miterlimit:10;"/><text fill="#000000" font-family="'DejaVu Sans'" font-size="14" lengthAdjust="spacing" textLength="56.7383" x="522" y="289.4561">optional</text></g><!--link P to G--><g class="link" data-entity-1="ent0003" data-entity-2="ent0007" data-link-type="dependency" data-source-line="34" id="lnk14"><path d="M629,245.5909 C629,268.9309 629,294.9009 629,318.2609" fill="none" id="P-to-G" style="stroke:#37474F;stroke-width:1;"/><polygon fill="#37474F" points="629,323.2609,633,314.2609,629,318.2609,625,314.2609,629,323.2609" style="stroke:#37474F;stroke-width:1;stroke-linejoin:miter;stroke-miterlimit:10;"/><text fill="#000000" font-family="'DejaVu Sans'" font-size="14" lengthAdjust="spacing" textLength="56.7383" x="630" y="289.4561">optional</text></g></g></svg>